<svg width="41" height="41" viewBox="0 0 31 31" fill="none" xmlns="http://www.w3.org/2000/svg">
<path d="M15.8477 0.548096C24.1322 0.548096 30.8477 7.2636 30.8477 15.5481C30.8477 23.8326 24.1322 30.5481 15.8477 30.5481C7.56316 30.5481 0.847656 23.8326 0.847656 15.5481C0.847656 7.2636 7.56316 0.548096 15.8477 0.548096ZM22.3232 10.7601C22.1599 10.5968 21.942 10.4996 21.7115 10.487C21.4809 10.4744 21.2538 10.5473 21.0737 10.6918L20.9972 10.7601L13.4102 18.3471L10.6982 15.6351C10.5286 15.4655 10.3006 15.3673 10.0608 15.3607C9.82114 15.3542 9.58803 15.4397 9.40945 15.5997C9.23087 15.7598 9.12041 15.9822 9.10078 16.2211C9.08115 16.4601 9.15384 16.6976 9.30391 16.8846L9.37216 16.9611L12.7472 20.3361C12.9105 20.4994 13.1283 20.5966 13.3589 20.6092C13.5894 20.6218 13.8165 20.5489 13.9967 20.4043L14.0732 20.3361L22.3232 12.0861C22.4102 11.999 22.4793 11.8957 22.5264 11.7819C22.5736 11.6682 22.5978 11.5462 22.5978 11.4231C22.5978 11.3 22.5736 11.178 22.5264 11.0643C22.4793 10.9505 22.4102 10.8472 22.3232 10.7601Z" fill="#0BC329"/>
</svg>
