<svg width="88" height="111" viewBox="0 0 88 111" fill="none" xmlns="http://www.w3.org/2000/svg">
<path d="M82.5149 42.9326H74.2771C73.9166 42.9326 73.5708 43.0774 73.3159 43.3353C73.061 43.5932 72.9177 43.9429 72.9177 44.3076V46.9613H71.6399L70.199 40.0863C69.6956 38.1833 68.5811 36.5036 67.0308 35.3114C65.4805 34.1191 63.5824 33.4819 61.6349 33.5001H49.8899V15.5288C49.8936 14.9976 49.7926 14.4709 49.5928 13.9795C49.3931 13.4882 49.0986 13.042 48.7266 12.667C48.3546 12.292 47.9125 11.9956 47.426 11.7953C46.9396 11.5949 46.4186 11.4946 45.8934 11.5001H36.6632C36.5115 10.4198 35.9429 9.44432 35.0817 8.78717C34.2206 8.13003 33.1371 7.84476 32.0685 7.99382C31.7702 7.01694 31.1704 6.1624 30.357 5.55543C29.5436 4.94846 28.5594 4.62097 27.5486 4.62097C26.5378 4.62097 25.5536 4.94846 24.7402 5.55543C23.9268 6.1624 23.327 7.01694 23.0287 7.99382C21.9601 7.84476 20.8766 8.13003 20.0155 8.78717C19.1543 9.44432 18.5857 10.4198 18.434 11.5001H9.20383C8.15469 11.5001 7.14852 11.9216 6.40667 12.672C5.66482 13.4224 5.24805 14.4401 5.24805 15.5013V64.6851C5.25775 65.278 5.39372 65.8618 5.6467 66.3968C5.89967 66.9317 6.26371 67.4052 6.71398 67.785C7.16425 68.1647 7.69018 68.4418 8.25592 68.5974C8.82165 68.7529 9.41389 68.7832 9.99227 68.6863C9.85633 71.0513 9.99227 77.6101 9.99227 79.9063C9.99569 81.0809 10.4548 82.2073 11.2709 83.043C12.0869 83.8787 13.1947 84.357 14.3559 84.3751H21.8868C23.0574 84.3714 24.1791 83.8995 25.0068 83.0622C25.8346 82.2249 26.3012 81.0904 26.3048 79.9063V78.5313H62.6001V79.9063C62.6037 81.0904 63.0703 82.2249 63.898 83.0622C64.7258 83.8995 65.8474 84.3714 67.018 84.3751H74.549C75.7196 84.3714 76.8412 83.8995 77.669 83.0622C78.4968 82.2249 78.9634 81.0904 78.9669 79.9063V77.1563C78.9669 77.0876 78.9669 69.3738 78.9669 69.3051C78.9669 69.2363 78.2601 61.3988 78.2873 61.3163C78.1455 59.6482 77.5855 58.0442 76.6603 56.6559C75.735 55.2677 74.4749 54.1411 72.9993 53.3826L72.238 49.7113H72.9585V50.9488C72.9556 51.1508 72.9967 51.351 73.079 51.5352C73.1613 51.7193 73.2827 51.8828 73.4345 52.0141C73.5864 52.1454 73.765 52.2412 73.9576 52.2947C74.1502 52.3482 74.3521 52.3582 74.549 52.3238L82.7052 50.9488C83.0269 50.8961 83.3191 50.7283 83.5287 50.4759C83.7383 50.2235 83.8513 49.9034 83.8471 49.5738V44.3076C83.8472 43.9476 83.7077 43.602 83.4586 43.3449C83.2095 43.0878 82.8707 42.9398 82.5149 42.9326ZM19.7526 17.7426H43.2426V62.4713H11.8274V17.7426H19.7526ZM21.112 12.0088C21.1119 11.683 21.239 11.3703 21.4655 11.1386C21.692 10.9069 21.9997 10.7749 22.3218 10.7713H24.1705C24.5311 10.7713 24.8768 10.6264 25.1318 10.3686C25.3867 10.1107 25.5299 9.76099 25.5299 9.39632C25.5299 8.84931 25.7448 8.3247 26.1272 7.93791C26.5095 7.55111 27.0282 7.33382 27.569 7.33382C28.1098 7.33382 28.6284 7.55111 29.0108 7.93791C29.3932 8.3247 29.608 8.84931 29.608 9.39632C29.608 9.76099 29.7513 10.1107 30.0062 10.3686C30.2611 10.6264 30.6069 10.7713 30.9674 10.7713H32.8298C33.1495 10.7785 33.4538 10.912 33.6773 11.1434C33.9009 11.3747 34.0261 11.6853 34.026 12.0088V14.9926H21.112V12.0088ZM7.9668 64.6851V15.5288C7.96318 15.3622 7.9925 15.1965 8.05304 15.0415C8.11358 14.8865 8.20413 14.7453 8.31936 14.6262C8.43459 14.5071 8.57219 14.4125 8.72407 14.3479C8.87596 14.2833 9.03907 14.25 9.20383 14.2501H18.3932V14.9651H10.468C10.1075 14.9651 9.76176 15.1099 9.50682 15.3678C9.25189 15.6257 9.10867 15.9754 9.10867 16.3401V63.8463C9.10867 64.211 9.25189 64.5607 9.50682 64.8186C9.76176 65.0764 10.1075 65.2213 10.468 65.2213H44.602C44.9625 65.2213 45.3082 65.0764 45.5632 64.8186C45.8181 64.5607 45.9613 64.211 45.9613 63.8463V16.3676C45.9613 16.0029 45.8181 15.6532 45.5632 15.3953C45.3082 15.1374 44.9625 14.9926 44.602 14.9926H36.704V14.2501H45.8934C46.2214 14.2501 46.5361 14.3819 46.7681 14.6165C47.0001 14.8512 47.1304 15.1695 47.1304 15.5013V64.6851C47.1304 65.0169 47.0001 65.3352 46.7681 65.5698C46.5361 65.8045 46.2214 65.9363 45.8934 65.9363H9.19023C8.86451 65.9327 8.55335 65.7993 8.3243 65.565C8.09524 65.3307 7.96678 65.0145 7.9668 64.6851ZM35.8748 75.8088V73.1963H53.0301V75.8088H35.8748ZM75.5549 61.5913L76.2482 69.4151V79.9063C76.2482 80.3622 76.0692 80.7993 75.7505 81.1217C75.4318 81.444 74.9996 81.6251 74.549 81.6251H67.018C66.5674 81.6251 66.1352 81.444 65.8165 81.1217C65.4979 80.7993 65.3188 80.3622 65.3188 79.9063V78.5313H68.1871C68.5476 78.5313 68.8934 78.3864 69.1483 78.1286C69.4033 77.8707 69.5465 77.521 69.5465 77.1563C69.5465 76.7916 69.4033 76.4419 69.1483 76.184C68.8934 75.9262 68.5476 75.7813 68.1871 75.7813H55.7488V71.7938C55.7488 71.4291 55.6056 71.0794 55.3507 70.8215C55.0957 70.5637 54.75 70.4188 54.3895 70.4188H34.5154C34.1549 70.4188 33.8091 70.5637 33.5542 70.8215C33.2992 71.0794 33.156 71.4291 33.156 71.7938V75.7813H20.7177C20.3572 75.7813 20.0114 75.9262 19.7565 76.184C19.5016 76.4419 19.3584 76.7916 19.3584 77.1563C19.3584 77.521 19.5016 77.8707 19.7565 78.1286C20.0114 78.3864 20.3572 78.5313 20.7177 78.5313H23.586V79.9063C23.586 80.3622 23.407 80.7993 23.0883 81.1217C22.7697 81.444 22.3375 81.6251 21.8868 81.6251H14.3559C13.9052 81.6251 13.473 81.444 13.1543 81.1217C12.8357 80.7993 12.6566 80.3622 12.6566 79.9063V69.4151L12.7246 68.6863H45.8934C46.4163 68.6918 46.935 68.5923 47.4197 68.3937C47.9044 68.195 48.3453 67.9012 48.7169 67.5291C49.0886 67.157 49.3836 66.714 49.585 66.2259C49.7863 65.7377 49.8899 65.214 49.8899 64.6851V55.0601H68.5406C70.3091 55.0512 72.0155 55.7197 73.3167 56.9313C74.6179 58.1429 75.4176 59.8078 75.5549 61.5913ZM49.8899 52.3238V36.2501H61.6757C63.0037 36.2302 64.3009 36.6549 65.3654 37.4582C66.43 38.2614 67.2022 39.3981 67.5618 40.6913L69.9951 52.3238H49.8899ZM81.1555 48.4051L75.6365 49.3263V45.6826H81.1555V48.4051Z" fill="#7E7A7A"/>
<path d="M56.9852 63.1038C55.7618 65.8538 58.5485 69.0988 61.4032 69.0163H69.7362C70.3779 68.9802 71.0064 68.8166 71.5856 68.5348C72.1649 68.253 72.6836 67.8586 73.1122 67.3741C73.5407 66.8895 73.8707 66.3243 74.0833 65.7108C74.2959 65.0972 74.387 64.4473 74.3513 63.7982C74.3156 63.1491 74.1538 62.5134 73.8752 61.9275C73.5966 61.3416 73.2067 60.8169 72.7277 60.3834C72.2486 59.95 71.6899 59.6162 71.0833 59.4011C70.4767 59.1861 69.8342 59.094 69.1924 59.1301L59.4049 61.1376C58.8732 61.2397 58.3745 61.4725 57.9526 61.8153C57.5306 62.1582 57.1985 62.6007 56.9852 63.1038ZM59.4729 64.2038C59.5121 64.1122 59.5718 64.0309 59.6473 63.9665C59.7228 63.9021 59.812 63.8562 59.9079 63.8326L69.641 61.8388C72.3598 61.8388 72.3598 66.2251 69.7362 66.2663H61.4032C61.0641 66.2661 60.7308 66.1774 60.4356 66.0088C60.1403 65.8402 59.893 65.5974 59.7176 65.3038C59.5137 64.9876 59.269 64.5888 59.4729 64.2038Z" fill="#7E7A7A"/>
<path d="M14.668 28.1926H20.4045C20.7651 28.1926 21.1108 28.0478 21.3658 27.7899C21.6207 27.532 21.7639 27.1823 21.7639 26.8176V21.3176C21.7639 20.953 21.6207 20.6032 21.3658 20.3454C21.1108 20.0875 20.7651 19.9426 20.4045 19.9426H14.668C14.3074 19.9426 13.9617 20.0875 13.7067 20.3454C13.4518 20.6032 13.3086 20.953 13.3086 21.3176V26.8176C13.3086 27.1823 13.4518 27.532 13.7067 27.7899C13.9617 28.0478 14.3074 28.1926 14.668 28.1926ZM16.0273 22.6926H19.0452V25.4426H16.0273V22.6926Z" fill="#7E7A7A"/>
<path d="M23.8437 23.4624H31.5922C31.9527 23.4624 32.2985 23.3175 32.5534 23.0597C32.8083 22.8018 32.9516 22.4521 32.9516 22.0874C32.9516 21.7227 32.8083 21.373 32.5534 21.1151C32.2985 20.8573 31.9527 20.7124 31.5922 20.7124H23.8437C23.4832 20.7124 23.1375 20.8573 22.8825 21.1151C22.6276 21.373 22.4844 21.7227 22.4844 22.0874C22.4844 22.4521 22.6276 22.8018 22.8825 23.0597C23.1375 23.3175 23.4832 23.4624 23.8437 23.4624Z" fill="#7E7A7A"/>
<path d="M23.8437 26.9825H40.9311C41.2916 26.9825 41.6374 26.8377 41.8923 26.5798C42.1472 26.3219 42.2905 25.9722 42.2905 25.6075C42.2905 25.2429 42.1472 24.8931 41.8923 24.6353C41.6374 24.3774 41.2916 24.2325 40.9311 24.2325H23.8437C23.4832 24.2325 23.1375 24.3774 22.8825 24.6353C22.6276 24.8931 22.4844 25.2429 22.4844 25.6075C22.4844 25.9722 22.6276 26.3219 22.8825 26.5798C23.1375 26.8377 23.4832 26.9825 23.8437 26.9825Z" fill="#7E7A7A"/>
<path d="M14.668 39H20.4045C20.7651 39 21.1108 38.8551 21.3658 38.5973C21.6207 38.3394 21.7639 37.9897 21.7639 37.625V32.125C21.7639 31.7603 21.6207 31.4106 21.3658 31.1527C21.1108 30.8949 20.7651 30.75 20.4045 30.75H14.668C14.3074 30.75 13.9617 30.8949 13.7067 31.1527C13.4518 31.4106 13.3086 31.7603 13.3086 32.125V37.625C13.3086 37.9897 13.4518 38.3394 13.7067 38.5973C13.9617 38.8551 14.3074 39 14.668 39ZM16.0273 33.5H19.0452V36.25H16.0273V33.5Z" fill="#7E7A7A"/>
<path d="M23.8437 34.2563H31.5922C31.9527 34.2563 32.2985 34.1115 32.5534 33.8536C32.8083 33.5958 32.9516 33.246 32.9516 32.8813C32.9516 32.5167 32.8083 32.1669 32.5534 31.9091C32.2985 31.6512 31.9527 31.5063 31.5922 31.5063H23.8437C23.4832 31.5063 23.1375 31.6512 22.8825 31.9091C22.6276 32.1669 22.4844 32.5167 22.4844 32.8813C22.4844 33.246 22.6276 33.5958 22.8825 33.8536C23.1375 34.1115 23.4832 34.2563 23.8437 34.2563Z" fill="#7E7A7A"/>
<path d="M23.8437 37.7764H40.9311C41.2916 37.7764 41.6374 37.6315 41.8923 37.3736C42.1472 37.1158 42.2905 36.766 42.2905 36.4014C42.2905 36.0367 42.1472 35.687 41.8923 35.4291C41.6374 35.1712 41.2916 35.0264 40.9311 35.0264H23.8437C23.4832 35.0264 23.1375 35.1712 22.8825 35.4291C22.6276 35.687 22.4844 36.0367 22.4844 36.4014C22.4844 36.766 22.6276 37.1158 22.8825 37.3736C23.1375 37.6315 23.4832 37.7764 23.8437 37.7764Z" fill="#7E7A7A"/>
<path d="M14.668 49.7801H20.4045C20.7651 49.7801 21.1108 49.6353 21.3658 49.3774C21.6207 49.1196 21.7639 48.7698 21.7639 48.4051V42.9052C21.7639 42.5405 21.6207 42.1907 21.3658 41.9329C21.1108 41.675 20.7651 41.5302 20.4045 41.5302H14.668C14.3074 41.5302 13.9617 41.675 13.7067 41.9329C13.4518 42.1907 13.3086 42.5405 13.3086 42.9052V48.4051C13.3086 48.7698 13.4518 49.1196 13.7067 49.3774C13.9617 49.6353 14.3074 49.7801 14.668 49.7801ZM16.0273 44.2801H19.0452V47.0301H16.0273V44.2801Z" fill="#7E7A7A"/>
<path d="M23.8437 45.0502H31.5922C31.9527 45.0502 32.2985 44.9053 32.5534 44.6474C32.8083 44.3896 32.9516 44.0398 32.9516 43.6752C32.9516 43.3105 32.8083 42.9608 32.5534 42.7029C32.2985 42.445 31.9527 42.3002 31.5922 42.3002H23.8437C23.4832 42.3002 23.1375 42.445 22.8825 42.7029C22.6276 42.9608 22.4844 43.3105 22.4844 43.6752C22.4844 44.0398 22.6276 44.3896 22.8825 44.6474C23.1375 44.9053 23.4832 45.0502 23.8437 45.0502Z" fill="#7E7A7A"/>
<path d="M23.8437 48.625H40.9311C41.2916 48.625 41.6374 48.4801 41.8923 48.2223C42.1472 47.9644 42.2905 47.6147 42.2905 47.25C42.2905 46.8853 42.1472 46.5356 41.8923 46.2777C41.6374 46.0199 41.2916 45.875 40.9311 45.875H23.8437C23.4832 45.875 23.1375 46.0199 22.8825 46.2777C22.6276 46.5356 22.4844 46.8853 22.4844 47.25C22.4844 47.6147 22.6276 47.9644 22.8825 48.2223C23.1375 48.4801 23.4832 48.625 23.8437 48.625Z" fill="#7E7A7A"/>
<path d="M14.668 60.5737H20.4045C20.7651 60.5737 21.1108 60.4289 21.3658 60.171C21.6207 59.9131 21.7639 59.5634 21.7639 59.1987V53.6987C21.7639 53.3341 21.6207 52.9843 21.3658 52.7265C21.1108 52.4686 20.7651 52.3237 20.4045 52.3237H14.668C14.3074 52.3237 13.9617 52.4686 13.7067 52.7265C13.4518 52.9843 13.3086 53.3341 13.3086 53.6987V59.1987C13.3086 59.5634 13.4518 59.9131 13.7067 60.171C13.9617 60.4289 14.3074 60.5737 14.668 60.5737ZM16.0273 55.0737H19.0452V57.8237H16.0273V55.0737Z" fill="#7E7A7A"/>
<path d="M23.8437 55.8438H31.5922C31.9527 55.8438 32.2985 55.6989 32.5534 55.441C32.8083 55.1832 32.9516 54.8334 32.9516 54.4688C32.9516 54.1041 32.8083 53.7543 32.5534 53.4965C32.2985 53.2386 31.9527 53.0938 31.5922 53.0938H23.8437C23.4832 53.0938 23.1375 53.2386 22.8825 53.4965C22.6276 53.7543 22.4844 54.1041 22.4844 54.4688C22.4844 54.8334 22.6276 55.1832 22.8825 55.441C23.1375 55.6989 23.4832 55.8438 23.8437 55.8438Z" fill="#7E7A7A"/>
<path d="M23.8437 59.3638H40.9311C41.2916 59.3638 41.6374 59.2189 41.8923 58.961C42.1472 58.7032 42.2905 58.3534 42.2905 57.9888C42.2905 57.6241 42.1472 57.2744 41.8923 57.0165C41.6374 56.7586 41.2916 56.6138 40.9311 56.6138H23.8437C23.4832 56.6138 23.1375 56.7586 22.8825 57.0165C22.6276 57.2744 22.4844 57.6241 22.4844 57.9888C22.4844 58.3534 22.6276 58.7032 22.8825 58.961C23.1375 59.2189 23.4832 59.3638 23.8437 59.3638Z" fill="#7E7A7A"/>
</svg>
