<svg width="24" height="23" viewBox="0 0 24 23" fill="none" xmlns="http://www.w3.org/2000/svg">
<path d="M15.9602 16.4693L17.9025 14.527C18.1641 14.2687 18.4951 14.0918 18.8553 14.0179C19.2155 13.944 19.5893 13.9763 19.9315 14.1108L22.2987 15.0559C22.6445 15.1963 22.941 15.4359 23.1509 15.7445C23.3607 16.0531 23.4745 16.4169 23.478 16.7901V21.1256C23.4759 21.3795 23.4226 21.6303 23.3211 21.863C23.2196 22.0957 23.072 22.3055 22.8873 22.4797C22.7026 22.6538 22.4846 22.7888 22.2463 22.8765C22.0081 22.9642 21.7545 23.0028 21.501 22.9899C4.9134 21.958 1.5664 7.91106 0.933423 2.53505C0.904039 2.27105 0.930886 2.00382 1.0122 1.75094C1.09351 1.49807 1.22744 1.26527 1.40518 1.06787C1.58292 0.870468 1.80045 0.712938 2.04344 0.605643C2.28644 0.498347 2.5494 0.443718 2.81502 0.445348H7.00311C7.37683 0.446454 7.74168 0.559343 8.05073 0.769494C8.35978 0.979646 8.59888 1.27745 8.7373 1.6246L9.68244 3.99178C9.82139 4.33261 9.85684 4.70682 9.78436 5.06768C9.71188 5.42854 9.53468 5.76005 9.2749 6.02079L7.3326 7.96308C7.3326 7.96308 8.45116 15.5328 15.9602 16.4693Z" fill="#EC1D23"/>
</svg>
