<svg width="11" height="11" viewBox="0 0 11 11" fill="none" xmlns="http://www.w3.org/2000/svg">
<path d="M5.65792 5.35793L9.99105 1.02477C10.1436 0.872212 10.1436 0.624868 9.99105 0.472329C9.83849 0.31979 9.59115 0.319771 9.43861 0.472329L5.10546 4.80549L0.772327 0.472329C0.619769 0.319771 0.372426 0.319771 0.219887 0.472329C0.0673487 0.624888 0.0673292 0.872231 0.219887 1.02477L4.55302 5.35791L0.219887 9.69107C0.0673292 9.84363 0.0673292 10.091 0.219887 10.2435C0.296157 10.3198 0.396137 10.3579 0.496117 10.3579C0.596097 10.3579 0.696058 10.3198 0.772347 10.2435L5.10546 5.91037L9.43859 10.2435C9.51486 10.3198 9.61484 10.3579 9.71482 10.3579C9.8148 10.3579 9.91476 10.3198 9.99105 10.2435C10.1436 10.091 10.1436 9.84361 9.99105 9.69107L5.65792 5.35793Z" fill="#5C5B5B"/>
</svg>
