<svg width="29" height="30" viewBox="0 0 29 30" fill="none" xmlns="http://www.w3.org/2000/svg">
<path d="M14.4261 0.92981C6.63606 0.92981 0.320312 7.24556 0.320312 15.0356C0.320312 22.8257 6.63606 29.1415 14.4261 29.1415C22.2162 29.1415 28.532 22.8257 28.532 15.0356C28.532 7.24556 22.2162 0.92981 14.4261 0.92981ZM20.9365 17.2058H14.4261C14.1384 17.2058 13.8624 17.0915 13.6589 16.888C13.4554 16.6845 13.3411 16.4085 13.3411 16.1207V6.35513C13.3411 6.06735 13.4554 5.79136 13.6589 5.58787C13.8624 5.38439 14.1384 5.27007 14.4261 5.27007C14.7139 5.27007 14.9899 5.38439 15.1934 5.58787C15.3969 5.79136 15.5112 6.06735 15.5112 6.35513V15.0356H20.9365C21.2243 15.0356 21.5003 15.15 21.7038 15.3534C21.9073 15.5569 22.0216 15.8329 22.0216 16.1207C22.0216 16.4085 21.9073 16.6845 21.7038 16.888C21.5003 17.0915 21.2243 17.2058 20.9365 17.2058Z" fill="white"/>
</svg>
