<svg width="20" height="20" viewBox="0 0 20 20" fill="none" xmlns="http://www.w3.org/2000/svg">
<path d="M11.0159 10.0412L19.5396 1.51746C19.8397 1.21736 19.8397 0.730818 19.5396 0.430761C19.2395 0.130703 18.753 0.130664 18.4529 0.430761L9.9292 8.95447L1.40552 0.430761C1.10543 0.130664 0.61888 0.130664 0.318822 0.430761C0.0187644 0.730857 0.018726 1.2174 0.318822 1.51746L8.8425 10.0411L0.318822 18.5648C0.018726 18.8649 0.018726 19.3515 0.318822 19.6515C0.468851 19.8016 0.665521 19.8766 0.862191 19.8766C1.05886 19.8766 1.25549 19.8016 1.40556 19.6515L9.9292 11.1279L18.4529 19.6515C18.6029 19.8016 18.7996 19.8766 18.9962 19.8766C19.1929 19.8766 19.3895 19.8016 19.5396 19.6515C19.8397 19.3514 19.8397 18.8649 19.5396 18.5648L11.0159 10.0412Z" fill="#5C5B5B"/>
</svg>
