<svg width="39" height="38" viewBox="0 0 39 38" fill="none" xmlns="http://www.w3.org/2000/svg">
<path d="M33.9857 0.164795H4.81901C2.52734 0.164795 0.652344 2.03979 0.652344 4.33146V33.4981C0.652344 35.7919 2.52734 37.6648 4.81901 37.6648H19.4023V23.0815H15.2357V17.9252H19.4023V13.6544C19.4023 9.14604 21.9273 5.97938 27.2482 5.97938L31.0044 5.98354V11.4106H28.5107C26.4398 11.4106 25.6523 12.9648 25.6523 14.4065V17.9273H31.0023L29.819 23.0815H25.6523V37.6648H33.9857C36.2773 37.6648 38.1523 35.7919 38.1523 33.4981V4.33146C38.1523 2.03979 36.2773 0.164795 33.9857 0.164795Z" fill="white"/>
</svg>
