<svg width="70" height="66" viewBox="0 0 70 66" fill="none" xmlns="http://www.w3.org/2000/svg">
<path fill-rule="evenodd" clip-rule="evenodd" d="M19.7724 6.20437C24.0826 2.48757 29.58 0.43484 35.2715 0.416992C46.8721 0.416992 56.5019 9.04199 57.5499 20.1639C64.4154 21.1342 69.7715 26.8828 69.7715 33.9381C69.7715 41.6833 63.3114 47.8545 55.4842 47.8545H43.8965C43.3246 47.8545 42.7762 47.6273 42.3718 47.2229C41.9674 46.8186 41.7402 46.2701 41.7402 45.6982C41.7402 45.1264 41.9674 44.5779 42.3718 44.1735C42.7762 43.7692 43.3246 43.542 43.8965 43.542H55.4885C61.0559 43.542 65.459 39.1777 65.459 33.9381C65.459 28.6941 61.0602 24.3298 55.4842 24.3298H53.3279V22.1736C53.3322 12.5998 45.311 4.72949 35.2715 4.72949C30.6134 4.7481 26.1154 6.43049 22.5884 9.47324C19.3239 12.285 17.6161 15.6746 17.6161 18.3354V20.2674L15.697 20.4787C9.67248 21.1386 5.08398 26.085 5.08398 31.9759C5.08398 38.3023 10.3884 43.542 17.077 43.542H26.6465C27.2184 43.542 27.7668 43.7692 28.1712 44.1735C28.5756 44.5779 28.8027 45.1264 28.8027 45.6982C28.8027 46.2701 28.5756 46.8186 28.1712 47.2229C27.7668 47.6273 27.2184 47.8545 26.6465 47.8545H17.077C8.13723 47.8545 0.771484 40.8079 0.771484 31.9759C0.771484 24.3729 6.23111 18.0767 13.4589 16.4811C14.0755 12.7594 16.469 9.05062 19.7724 6.20437Z" fill="#979797"/>
<path fill-rule="evenodd" clip-rule="evenodd" d="M33.7437 18.2963C33.944 18.0955 34.1819 17.9362 34.4439 17.8275C34.7058 17.7188 34.9867 17.6628 35.2703 17.6628C35.5539 17.6628 35.8348 17.7188 36.0967 17.8275C36.3587 17.9362 36.5966 18.0955 36.7969 18.2963L49.7344 31.2338C50.1393 31.6387 50.3668 32.1879 50.3668 32.7604C50.3668 33.333 50.1393 33.8822 49.7344 34.2871C49.3295 34.692 48.7804 34.9194 48.2078 34.9194C47.6352 34.9194 47.0861 34.692 46.6812 34.2871L37.4266 25.0281V62.9479C37.4266 63.5198 37.1994 64.0683 36.795 64.4726C36.3906 64.877 35.8422 65.1042 35.2703 65.1042C34.6984 65.1042 34.15 64.877 33.7456 64.4726C33.3412 64.0683 33.1141 63.5198 33.1141 62.9479V25.0281L23.8594 34.2871C23.4545 34.692 22.9054 34.9194 22.3328 34.9194C21.7602 34.9194 21.2111 34.692 20.8062 34.2871C20.4013 33.8822 20.1738 33.333 20.1738 32.7604C20.1738 32.1879 20.4013 31.6387 20.8062 31.2338L33.7437 18.2963Z" fill="#979797"/>
</svg>
