<svg width="39" height="39" viewBox="0 0 39 39" fill="none" xmlns="http://www.w3.org/2000/svg">
<path d="M19.6202 13.1621C16.1084 13.1621 13.2425 16.028 13.2425 19.5398C13.2425 23.0516 16.1084 25.9175 19.6202 25.9175C23.132 25.9175 25.9979 23.0516 25.9979 19.5398C25.9979 16.028 23.132 13.1621 19.6202 13.1621ZM38.7486 19.5398C38.7486 16.8988 38.7725 14.2816 38.6242 11.6454C38.4759 8.58333 37.7773 5.86574 35.5382 3.62661C33.2943 1.38268 30.5815 0.688933 27.5194 0.540615C24.8784 0.392296 22.2612 0.416218 19.625 0.416218C16.984 0.416218 14.3669 0.392296 11.7306 0.540615C8.66854 0.688933 5.95095 1.38747 3.71181 3.62661C1.46789 5.87053 0.774139 8.58333 0.62582 11.6454C0.477501 14.2864 0.501423 16.9035 0.501423 19.5398C0.501423 22.176 0.477501 24.7979 0.62582 27.4342C0.774139 30.4963 1.47267 33.2138 3.71181 35.453C5.95573 37.6969 8.66854 38.3907 11.7306 38.539C14.3716 38.6873 16.9887 38.6634 19.625 38.6634C22.266 38.6634 24.8831 38.6873 27.5194 38.539C30.5815 38.3907 33.299 37.6921 35.5382 35.453C37.7821 33.2091 38.4759 30.4963 38.6242 27.4342C38.7773 24.7979 38.7486 22.1808 38.7486 19.5398ZM19.6202 29.3528C14.1898 29.3528 9.80724 24.9702 9.80724 19.5398C9.80724 14.1094 14.1898 9.72682 19.6202 9.72682C25.0506 9.72682 29.4332 14.1094 29.4332 19.5398C29.4332 24.9702 25.0506 29.3528 19.6202 29.3528ZM29.8351 11.6167C28.5672 11.6167 27.5433 10.5928 27.5433 9.32492C27.5433 8.05704 28.5672 7.03316 29.8351 7.03316C31.103 7.03316 32.1269 8.05704 32.1269 9.32492C32.1272 9.62599 32.0682 9.92417 31.9532 10.2024C31.8381 10.4806 31.6693 10.7334 31.4565 10.9463C31.2436 11.1592 30.9908 11.328 30.7126 11.443C30.4343 11.5581 30.1362 11.6171 29.8351 11.6167Z" fill="white"/>
</svg>
