<svg width="10" height="13" viewBox="0 0 10 13" fill="none" xmlns="http://www.w3.org/2000/svg">
<path d="M4.98754 0.257812C2.54321 0.257812 0.554688 2.24634 0.554688 4.69067C0.554688 5.49536 0.915573 6.36081 0.930697 6.39732C1.04726 6.67398 1.27724 7.10371 1.44308 7.3556L4.48245 11.9608C4.60683 12.1496 4.79093 12.2578 4.98754 12.2578C5.18415 12.2578 5.36824 12.1496 5.49262 11.9611L8.53225 7.3556C8.69835 7.10371 8.92808 6.67398 9.04463 6.39732C9.05976 6.36107 9.42038 5.49562 9.42038 4.69067C9.42038 2.24634 7.43186 0.257812 4.98754 0.257812ZM8.5638 6.19497C8.45976 6.44295 8.24568 6.84269 8.09679 7.0685L5.05716 11.674C4.99718 11.765 4.97815 11.765 4.91817 11.674L1.87854 7.0685C1.72965 6.84269 1.51557 6.44269 1.41153 6.19471C1.4071 6.18402 1.0762 5.38741 1.0762 4.69067C1.0762 2.53395 2.83082 0.779325 4.98754 0.779325C7.14425 0.779325 8.89887 2.53395 8.89887 4.69067C8.89887 5.38845 8.56719 6.18715 8.5638 6.19497Z" fill="#696969"/>
<path d="M4.98743 2.34375C3.6933 2.34375 2.64062 3.39668 2.64062 4.69056C2.64062 5.98443 3.6933 7.03736 4.98743 7.03736C6.28157 7.03736 7.33424 5.98443 7.33424 4.69056C7.33424 3.39668 6.28157 2.34375 4.98743 2.34375ZM4.98743 6.51585C3.98117 6.51585 3.16214 5.69707 3.16214 4.69056C3.16214 3.68404 3.98117 2.86526 4.98743 2.86526C5.99369 2.86526 6.81273 3.68404 6.81273 4.69056C6.81273 5.69707 5.99369 6.51585 4.98743 6.51585Z" fill="#696969"/>
</svg>
