<svg width="84" height="83" viewBox="0 0 84 83" fill="none" xmlns="http://www.w3.org/2000/svg">
<path d="M42.1836 0.391479C64.966 0.391479 83.4336 18.8591 83.4336 41.6415C83.4336 64.4239 64.966 82.8915 42.1836 82.8915C19.4012 82.8915 0.933594 64.4239 0.933594 41.6415C0.933594 18.8591 19.4012 0.391479 42.1836 0.391479ZM42.1836 5.54773C22.2495 5.54773 6.08984 21.7074 6.08984 41.6415C6.08984 61.5755 22.2495 77.7352 42.1836 77.7352C62.1177 77.7352 78.2773 61.5755 78.2773 41.6415C78.2773 21.7074 62.1177 5.54773 42.1836 5.54773ZM59.9912 28.4745C60.2307 28.7139 60.4207 28.9981 60.5503 29.311C60.6799 29.6238 60.7466 29.9591 60.7466 30.2977C60.7466 30.6364 60.6799 30.9717 60.5503 31.2845C60.4207 31.5973 60.2307 31.8816 59.9912 32.121L37.3037 54.8085C37.0643 55.048 36.7801 55.2379 36.4672 55.3675C36.1544 55.4971 35.8191 55.5638 35.4805 55.5638C35.1418 55.5638 34.8065 55.4971 34.4937 55.3675C34.1809 55.2379 33.8966 55.048 33.6572 54.8085L24.376 45.5272C23.8924 45.0437 23.6208 44.3878 23.6208 43.704C23.6208 43.0201 23.8924 42.3643 24.376 41.8807C24.8595 41.3972 25.5154 41.1255 26.1992 41.1255C26.8831 41.1255 27.5389 41.3972 28.0225 41.8807L35.4805 49.3387L56.3447 28.4745C56.5841 28.235 56.8684 28.045 57.1812 27.9154C57.494 27.7858 57.8293 27.7191 58.168 27.7191C58.5066 27.7191 58.8419 27.7858 59.1547 27.9154C59.4676 28.045 59.7518 28.235 59.9912 28.4745Z" fill="#0BC329"/>
</svg>
