<svg width="29" height="23" viewBox="0 0 29 23" fill="none" xmlns="http://www.w3.org/2000/svg">
<path d="M25.7686 6.08545L14.71 12.9971L3.65137 6.08545V3.3208L14.71 10.2324L25.7686 3.3208V6.08545ZM25.7686 0.556152H3.65137C2.11699 0.556152 0.886719 1.78642 0.886719 3.3208V19.9087C0.886719 20.6419 1.17799 21.3451 1.69647 21.8636C2.21494 22.3821 2.91814 22.6733 3.65137 22.6733H25.7686C26.5018 22.6733 27.205 22.3821 27.7235 21.8636C28.2419 21.3451 28.5332 20.6419 28.5332 19.9087V3.3208C28.5332 2.58757 28.2419 1.88437 27.7235 1.3659C27.205 0.847427 26.5018 0.556152 25.7686 0.556152Z" fill="white"/>
</svg>
