<svg width="13" height="12" viewBox="0 0 13 12" fill="none" xmlns="http://www.w3.org/2000/svg">
<path d="M6.76359 2.78848H6.76345V2.31168V1.35777H6.76359H7.16607V2.78848H7.16564V2.78877L6.96466 2.78848H6.76359ZM1.91224 7.60692L2.91626 7.42995L3.32123 7.3586V7.35831H3.32137L3.28597 7.1587L3.25143 6.96246H3.25129V6.96218L1.84223 7.2105L1.91224 7.60692ZM10.8152 4.06538L10.0912 4.48302V4.4833L10.2029 4.67698L10.2924 4.83151L11.5314 4.11623L11.3301 3.76776L10.8152 4.06538ZM4.5633 9.37513L4.40467 9.24206L3.48489 10.3378L3.79336 10.5966L4.19359 10.1195L4.71302 9.50057L4.5633 9.37513ZM11.3253 9.27662L11.5263 8.92791L11.0941 8.67832L10.2876 8.21227V8.21256L10.1764 8.40482L10.0866 8.56083V8.56112L11.3253 9.27662ZM1.84393 5.81498L2.34643 5.90326L3.25275 6.0635V6.06321H3.2529L3.31277 5.72274L3.32247 5.66696V5.66667L1.91349 5.41801L1.84393 5.81498ZM12.0074 5.42879L11.6244 5.49616L10.5983 5.6768V5.67709H10.5982L10.65 5.97064L10.6681 6.07313V6.07341L12.0773 5.82511L12.0074 5.42879ZM5.49994 3.08026V3.08054L5.82654 2.96141L5.87787 2.94273H5.87801L5.38888 1.5981L5.01066 1.73599L5.08039 1.92767L5.49994 3.08026ZM2.58908 9.26754L3.82797 8.55236V8.55207L3.67303 8.28379L3.6268 8.20365L2.3877 8.91886L2.58894 9.2674H2.58908V9.26754ZM9.1989 9.50708L10.1185 10.6034L10.4266 10.3446V10.3443L9.50722 9.24826V9.24855V9.24826L9.29331 9.42778L9.1989 9.50708ZM2.39294 4.10748L3.63197 4.82305L3.80624 4.52096L3.83307 4.47459V4.4743L2.59404 3.75901L2.39294 4.10748ZM12.0753 7.22071L10.6664 6.97212L10.6514 7.05707L10.5965 7.36854L12.0055 7.61713L12.0753 7.22071ZM3.80088 2.43228L3.49267 2.691L3.8306 3.09362L4.41241 3.78697L4.59446 3.63406L4.72044 3.52839L4.72059 3.5281L3.80088 2.43228ZM8.41969 1.93296L8.05076 2.94603L8.05105 2.94632L8.30304 3.03777L8.42905 3.08356H8.4292L8.91862 1.73927L8.54033 1.60174L8.41969 1.93296ZM9.43673 3.72814L9.51489 3.79355L10.4347 2.69737L10.1263 2.43893H10.1262L9.20656 3.53476V3.53505L9.43673 3.72814ZM6.96483 0.65918C3.65655 0.65918 0.964844 3.35067 0.964844 6.65924C0.964844 8.56505 1.85902 10.2648 3.24887 11.3648H3.85628C2.33093 10.3537 1.32265 8.62227 1.32265 6.65924C1.32265 3.54805 3.85367 1.01706 6.96481 1.01706C10.076 1.01706 12.6071 3.54805 12.6071 6.65924C12.6071 8.62227 11.5988 10.3537 10.0734 11.3648H10.6808C12.0705 10.2648 12.9648 8.56505 12.9648 6.65924C12.9648 3.35079 10.2731 0.65918 6.96483 0.65918ZM5.79361 9.28678C5.91947 9.28678 5.98225 9.16137 5.98225 8.91079C5.98225 8.65142 5.92074 8.52146 5.79751 8.52146C5.66763 8.52146 5.60257 8.65326 5.60257 8.91716C5.60257 9.16364 5.66636 9.28678 5.79361 9.28678ZM5.25578 8.07666H6.32289V9.74605H5.25578V8.07666ZM5.49589 8.92212C5.49589 9.0688 5.52109 9.18062 5.5717 9.2582C5.62224 9.33564 5.69261 9.37456 5.78293 9.37456C5.87948 9.37456 5.95451 9.33379 6.00831 9.25281C6.0621 9.17143 6.08907 9.05404 6.08907 8.89989C6.08907 8.58886 5.99379 8.43327 5.80331 8.43327C5.70372 8.43327 5.62775 8.47418 5.57503 8.55715C5.52222 8.63954 5.49589 8.76128 5.49589 8.92212ZM6.46312 8.07666H7.51109V9.74605H6.46312V8.07666ZM6.7384 9.33691C6.78002 9.36182 6.8428 9.37456 6.92699 9.37456C7.02687 9.37456 7.10564 9.34766 7.16284 9.29387C7.22003 9.24007 7.24892 9.16901 7.24892 9.08094C7.24892 8.99598 7.22231 8.9289 7.16907 8.87989C7.11558 8.8312 7.04026 8.80655 6.94284 8.80655C6.91906 8.80655 6.89338 8.80739 6.86541 8.80909V8.54237H7.2076V8.44836H6.76683V8.90514C6.83676 8.90003 6.8844 8.8975 6.90967 8.8975C6.98478 8.8975 7.04231 8.91419 7.08246 8.9476C7.12267 8.98104 7.14291 9.02774 7.14291 9.08719C7.14291 9.14752 7.12322 9.19562 7.08373 9.23217C7.0443 9.26869 6.99254 9.2868 6.92821 9.2868C6.8638 9.2868 6.80065 9.26671 6.73828 9.22649V9.33691H6.7384ZM7.61969 8.07666H8.67369V9.74605H7.61969V8.07666ZM7.88171 8.92212C7.88171 9.0688 7.90694 9.18062 7.95759 9.2582C8.00813 9.33564 8.07852 9.37456 8.16882 9.37456C8.26537 9.37456 8.34055 9.33379 8.3942 9.25281C8.448 9.17143 8.47489 9.05404 8.47489 8.89989C8.47489 8.58886 8.37947 8.43327 8.18903 8.43327C8.08954 8.43327 8.0135 8.47418 7.96071 8.55715C7.90806 8.63954 7.88171 8.76128 7.88171 8.92212ZM8.1796 9.28678C8.30532 9.28678 8.36831 9.16137 8.36831 8.91079C8.36831 8.65142 8.30673 8.52146 8.18355 8.52146C8.05359 8.52146 7.98861 8.65326 7.98861 8.91716C7.98847 9.16364 8.05218 9.28678 8.1796 9.28678ZM7.13987 7.21477C7.11467 7.21477 7.09259 7.22385 7.06938 7.22866L4.31957 4.8027L6.76565 7.55595C6.76402 7.56982 6.75708 7.5823 6.75708 7.59603C6.75708 7.80797 6.92819 7.97925 7.13987 7.97925C7.35026 7.97925 7.52127 7.80797 7.52127 7.59603C7.52156 7.38607 7.35028 7.21477 7.13987 7.21477Z" fill="#696969"/>
</svg>
