<svg width="164" height="164" viewBox="0 0 164 164" fill="none" xmlns="http://www.w3.org/2000/svg">
<path d="M74.625 70.3649C64.675 70.3649 56.625 78.4399 56.625 88.3649C56.625 98.2899 64.7 106.365 74.625 106.365C84.575 106.365 92.625 98.2899 92.625 88.3649C92.625 78.4399 84.575 70.3649 74.625 70.3649ZM74.6 96.2899C70.2 96.2899 66.625 92.7149 66.625 88.3149C66.625 83.9149 70.2 80.3399 74.6 80.3399C79 80.3399 82.575 83.9149 82.575 88.3149C82.575 92.7149 79 96.2899 74.6 96.2899Z" fill="#D24023"/>
<path d="M28.1258 87.5649L19.5258 58.2149H4.42578V105.165H14.3008V72.2649L23.3008 105.09H32.1008L41.7508 72.4899V105.09H51.4008V58.2149H36.9258L28.1258 87.5649Z" fill="#293C90"/>
<path d="M115.428 70.4899C111.703 70.4899 108.278 71.7899 105.478 73.9899V58.2149H95.8281V105.09H105.478V102.99C108.278 105.19 111.703 106.49 115.428 106.49C124.728 106.49 132.278 98.4149 132.278 88.4899C132.253 78.5649 124.728 70.4899 115.428 70.4899ZM114.253 96.5649C109.853 96.5649 106.278 92.9899 106.278 88.5899C106.278 84.1899 109.853 80.6149 114.253 80.6149C118.653 80.6149 122.228 84.1899 122.228 88.5899C122.228 92.9899 118.653 96.5649 114.253 96.5649Z" fill="#293C90"/>
<path d="M160.353 58.2399H150.703V105.115H160.353V58.2399Z" fill="#293C90"/>
<path d="M145.552 70.3899H135.902V105.215H145.552V70.3899Z" fill="#293C90"/>
<path d="M145.626 58.0399H135.801V67.8648H145.626V58.0399Z" fill="#293C90"/>
</svg>
