<svg width="28" height="21" viewBox="0 0 28 21" fill="none" xmlns="http://www.w3.org/2000/svg">
<path d="M26.6225 20.6416H1.51769C1.2799 20.6416 1.05185 20.5471 0.883702 20.379C0.715557 20.2108 0.621094 19.9828 0.621094 19.745C0.621094 19.5072 0.715557 19.2791 0.883702 19.111C1.05185 18.9429 1.2799 18.8484 1.51769 18.8484H26.6225C26.8603 18.8484 27.0884 18.9429 27.2565 19.111C27.4247 19.2791 27.5191 19.5072 27.5191 19.745C27.5191 19.9828 27.4247 20.2108 27.2565 20.379C27.0884 20.5471 26.8603 20.6416 26.6225 20.6416Z" fill="black"/>
<path d="M26.6225 11.6755H1.51769C1.2799 11.6755 1.05185 11.5811 0.883702 11.4129C0.715557 11.2448 0.621094 11.0167 0.621094 10.7789C0.621094 10.5411 0.715557 10.3131 0.883702 10.1449C1.05185 9.97679 1.2799 9.88232 1.51769 9.88232H26.6225C26.8603 9.88232 27.0884 9.97679 27.2565 10.1449C27.4247 10.3131 27.5191 10.5411 27.5191 10.7789C27.5191 11.0167 27.4247 11.2448 27.2565 11.4129C27.0884 11.5811 26.8603 11.6755 26.6225 11.6755Z" fill="black"/>
<path d="M26.6225 2.70946H1.51769C1.2799 2.70946 1.05185 2.615 0.883702 2.44685C0.715557 2.27871 0.621094 2.05065 0.621094 1.81286C0.621094 1.57507 0.715557 1.34701 0.883702 1.17887C1.05185 1.01072 1.2799 0.91626 1.51769 0.91626H26.6225C26.8603 0.91626 27.0884 1.01072 27.2565 1.17887C27.4247 1.34701 27.5191 1.57507 27.5191 1.81286C27.5191 2.05065 27.4247 2.27871 27.2565 2.44685C27.0884 2.615 26.8603 2.70946 26.6225 2.70946Z" fill="black"/>
</svg>
