<svg width="24" height="23" viewBox="0 0 24 23" fill="none" xmlns="http://www.w3.org/2000/svg">
<path d="M9.80487 13.372C11.1903 14.7775 12.8666 15.8625 14.716 16.551L17.218 14.56C17.2922 14.5089 17.3801 14.4816 17.4702 14.4816C17.5603 14.4816 17.6482 14.5089 17.7224 14.56L22.3681 17.5531C22.5444 17.6592 22.6937 17.8048 22.8042 17.9784C22.9146 18.1521 22.9831 18.349 23.0044 18.5537C23.0256 18.7584 22.999 18.9652 22.9266 19.1578C22.8541 19.3505 22.7379 19.5236 22.5871 19.6636L20.4103 21.8139C20.0985 22.1219 19.7154 22.348 19.295 22.4719C18.8746 22.5958 18.4301 22.6137 18.0011 22.524C13.722 21.6402 9.77775 19.5704 6.61927 16.551C3.53089 13.5016 1.39375 9.62157 0.467089 5.3815C0.375547 4.95917 0.394653 4.52036 0.522556 4.10758C0.650458 3.6948 0.88282 3.32207 1.19712 3.02549L3.45359 0.848665C3.59322 0.705172 3.76351 0.595127 3.9517 0.526772C4.13989 0.458416 4.34111 0.43352 4.54028 0.453948C4.73946 0.474377 4.93143 0.5396 5.10183 0.644733C5.27222 0.749867 5.41663 0.892187 5.52423 1.06104L8.61691 5.64697C8.67025 5.71898 8.69905 5.80623 8.69905 5.89585C8.69905 5.98546 8.67025 6.07271 8.61691 6.14472L6.57945 8.59365C7.28664 10.4061 8.38843 12.0384 9.80487 13.372Z" fill="white"/>
</svg>
