<svg width="33" height="33" viewBox="0 0 33 33" fill="none" xmlns="http://www.w3.org/2000/svg">
<mask id="path-1-inside-1" fill="white">
<path d="M16.9219 0.691406L11.5885 11.3581L0.921875 12.6914L8.2641 20.9047L6.25521 32.6914L16.9219 27.3581L27.5885 32.6914L25.5974 20.9047L32.9219 12.6914L22.2552 11.3581L16.9219 0.691406ZM16.9219 4.67363L21.0819 13.0114L29.3485 14.0425L23.6952 20.3714L25.2419 29.527L16.9219 25.367L8.60188 29.527L10.1485 20.3714L4.49521 14.0425L12.7619 13.0114L16.9219 4.67363Z"/>
</mask>
<path d="M16.9219 0.691406L11.5885 11.3581L0.921875 12.6914L8.2641 20.9047L6.25521 32.6914L16.9219 27.3581L27.5885 32.6914L25.5974 20.9047L32.9219 12.6914L22.2552 11.3581L16.9219 0.691406ZM16.9219 4.67363L21.0819 13.0114L29.3485 14.0425L23.6952 20.3714L25.2419 29.527L16.9219 25.367L8.60188 29.527L10.1485 20.3714L4.49521 14.0425L12.7619 13.0114L16.9219 4.67363Z" fill="#7B7A7A"/>
<path d="M16.9219 0.691406L21.394 -1.54466L16.9219 -10.4889L12.4497 -1.54466L16.9219 0.691406ZM11.5885 11.3581L12.2087 16.3195L14.864 15.9876L16.0607 13.5941L11.5885 11.3581ZM0.921875 12.6914L0.301701 7.73002L-9.16235 8.91302L-2.80581 16.0237L0.921875 12.6914ZM8.2641 20.9047L13.193 21.7448L13.5979 19.3691L11.9918 17.5724L8.2641 20.9047ZM6.25521 32.6914L1.32629 31.8513L-0.33093 41.5746L8.49128 37.1635L6.25521 32.6914ZM16.9219 27.3581L19.1579 22.8859L16.9219 21.7679L14.6858 22.8859L16.9219 27.3581ZM27.5885 32.6914L25.3525 37.1635L34.1587 41.5666L32.5187 31.8586L27.5885 32.6914ZM25.5974 20.9047L21.8657 17.5769L20.2672 19.3694L20.6673 21.7376L25.5974 20.9047ZM32.9219 12.6914L36.6536 16.0192L42.9923 8.91129L33.542 7.73002L32.9219 12.6914ZM22.2552 11.3581L17.7831 13.5941L18.9798 15.9876L21.635 16.3195L22.2552 11.3581ZM16.9219 4.67363L21.3959 2.44138L16.9219 -6.52583L12.4478 2.44138L16.9219 4.67363ZM21.0819 13.0114L16.6078 15.2437L17.8041 17.6413L20.463 17.973L21.0819 13.0114ZM29.3485 14.0425L33.0775 17.3734L39.4305 10.2613L29.9674 9.08096L29.3485 14.0425ZM23.6952 20.3714L19.9663 17.0405L18.3646 18.8336L18.7651 21.2043L23.6952 20.3714ZM25.2419 29.527L23.0058 33.9991L31.812 38.4022L30.172 28.6941L25.2419 29.527ZM16.9219 25.367L19.1579 20.8948L16.9219 19.7768L14.6858 20.8948L16.9219 25.367ZM8.60188 29.527L3.67173 28.6941L2.03172 38.4022L10.8379 33.9991L8.60188 29.527ZM10.1485 20.3714L15.0787 21.2043L15.4792 18.8336L13.8775 17.0405L10.1485 20.3714ZM4.49521 14.0425L3.87635 9.08096L-5.5867 10.2613L0.766264 17.3734L4.49521 14.0425ZM12.7619 13.0114L13.3807 17.973L16.0396 17.6413L17.2359 15.2437L12.7619 13.0114ZM12.4497 -1.54466L7.11641 9.12201L16.0607 13.5941L21.394 2.92747L12.4497 -1.54466ZM10.9684 6.39668L0.301701 7.73002L1.54205 17.6528L12.2087 16.3195L10.9684 6.39668ZM-2.80581 16.0237L4.53641 24.2371L11.9918 17.5724L4.64956 9.35908L-2.80581 16.0237ZM3.33518 20.0647L1.32629 31.8513L11.1841 33.5315L13.193 21.7448L3.33518 20.0647ZM8.49128 37.1635L19.1579 31.8302L14.6858 22.8859L4.01914 28.2193L8.49128 37.1635ZM14.6858 31.8302L25.3525 37.1635L29.8246 28.2193L19.1579 22.8859L14.6858 31.8302ZM32.5187 31.8586L30.5276 20.0719L20.6673 21.7376L22.6584 33.5243L32.5187 31.8586ZM29.3291 24.2326L36.6536 16.0192L29.1902 9.36357L21.8657 17.5769L29.3291 24.2326ZM33.542 7.73002L22.8754 6.39668L21.635 16.3195L32.3017 17.6528L33.542 7.73002ZM26.7273 9.12201L21.394 -1.54466L12.4497 2.92747L17.7831 13.5941L26.7273 9.12201ZM12.4478 6.90588L16.6078 15.2437L25.5559 10.7792L21.3959 2.44138L12.4478 6.90588ZM20.463 17.973L28.7297 19.0041L29.9674 9.08096L21.7007 8.04985L20.463 17.973ZM25.6196 10.7116L19.9663 17.0405L27.4242 23.7023L33.0775 17.3734L25.6196 10.7116ZM18.7651 21.2043L20.3117 30.3598L30.172 28.6941L28.6254 19.5385L18.7651 21.2043ZM27.4779 25.0548L19.1579 20.8948L14.6858 29.8391L23.0058 33.9991L27.4779 25.0548ZM14.6858 20.8948L6.36581 25.0548L10.8379 33.9991L19.1579 29.8391L14.6858 20.8948ZM13.532 30.3598L15.0787 21.2043L5.2184 19.5385L3.67173 28.6941L13.532 30.3598ZM13.8775 17.0405L8.22415 10.7116L0.766264 17.3734L6.4196 23.7023L13.8775 17.0405ZM5.11407 19.0041L13.3807 17.973L12.143 8.04985L3.87635 9.08096L5.11407 19.0041ZM17.2359 15.2437L21.3959 6.90588L12.4478 2.44138L8.28783 10.7792L17.2359 15.2437Z" fill="#7B7A7A" mask="url(#path-1-inside-1)"/>
</svg>
