<svg width="46" height="39" viewBox="0 0 46 39" fill="none" xmlns="http://www.w3.org/2000/svg">
<path d="M45.9987 4.88956C45.6917 5.53776 45.1202 6.35652 44.2844 7.3458C43.4486 8.33509 42.4167 9.20502 41.1885 9.95554C41.2227 10.2285 41.2482 10.4843 41.2653 10.7231C41.3977 14.3998 40.517 18.2144 39.2952 21.3924C36.9267 27.3011 33.2976 32.0566 28.1141 35.2855C22.7088 38.386 16.4135 39.0455 10.6134 38.4837C6.76286 38.0415 2.96773 36.7841 0.0976562 34.4156C5.34693 35.0431 10.2458 33.2574 14.1187 30.373C9.81654 30.4819 6.69072 27.3698 5.21485 23.7719C5.88015 23.9462 6.57612 23.9252 7.21055 23.8743C7.99148 23.8009 8.73278 23.7276 9.46211 23.5673C6.71888 22.6822 4.31856 21.0551 3.06565 18.6036C2.33074 17.0502 1.99891 15.571 1.99107 13.8958C3.27649 14.5725 4.82271 15.2321 6.23833 15.175C4.10041 13.364 2.38647 11.0494 2.06784 8.39476C1.86668 6.18133 2.42055 4.16085 3.21923 2.27975C6.41727 5.79443 10.0055 8.68684 14.1444 10.4672C16.9748 11.6263 19.7973 12.2462 22.7156 12.2582C22.3788 9.6516 22.6407 7.13068 23.867 4.99181C25.3102 2.69225 27.4159 1.35806 29.7774 0.693372C33.1564 -0.173085 36.452 1.05083 38.5278 3.40547C40.7663 3.16369 42.9106 2.17062 44.6172 1.15391C43.892 3.34989 42.48 5.53333 40.4211 6.57811C42.3814 6.21519 44.2519 5.63488 45.9987 4.88956Z" fill="white"/>
</svg>
