<svg width="13" height="9" viewBox="0 0 13 9" fill="none" xmlns="http://www.w3.org/2000/svg">
<path d="M7.95312 4.80469C7.95312 5.30197 7.75558 5.77888 7.40395 6.13051C7.05232 6.48214 6.57541 6.67969 6.07812 6.67969C5.58084 6.67969 5.10393 6.48214 4.7523 6.13051C4.40067 5.77888 4.20313 5.30197 4.20312 4.80469C4.20313 4.30741 4.40067 3.83049 4.7523 3.47886C5.10393 3.12723 5.58084 2.92969 6.07812 2.92969C6.57541 2.92969 7.05232 3.12723 7.40395 3.47886C7.75558 3.83049 7.95312 4.30741 7.95312 4.80469Z" fill="#696969"/>
<path d="M0.078125 4.80469C0.078125 4.80469 2.32812 0.679688 6.07812 0.679688C9.82812 0.679688 12.0781 4.80469 12.0781 4.80469C12.0781 4.80469 9.82812 8.92969 6.07812 8.92969C2.32812 8.92969 0.078125 4.80469 0.078125 4.80469ZM6.07812 7.42969C6.77432 7.42969 7.442 7.15313 7.93428 6.66084C8.42656 6.16856 8.70312 5.50088 8.70312 4.80469C8.70312 4.10849 8.42656 3.44082 7.93428 2.94853C7.442 2.45625 6.77432 2.17969 6.07812 2.17969C5.38193 2.17969 4.71425 2.45625 4.22197 2.94853C3.72969 3.44082 3.45312 4.10849 3.45312 4.80469C3.45312 5.50088 3.72969 6.16856 4.22197 6.66084C4.71425 7.15313 5.38193 7.42969 6.07812 7.42969Z" fill="#696969"/>
</svg>
