<svg width="28" height="28" viewBox="0 0 28 28" fill="none" xmlns="http://www.w3.org/2000/svg">
<path d="M25.0348 6.50068C21.0061 0.289834 12.7809 -1.55663 6.40225 2.30416C0.191404 6.16495 -1.82292 14.558 2.20573 20.7688L2.54145 21.2724L1.19857 26.3082L6.23439 24.9653L6.73797 25.3011C8.92015 26.4761 11.2702 27.1475 13.6203 27.1475C16.1382 27.1475 18.6561 26.4761 20.8383 25.1332C27.0491 21.1045 28.8956 12.8794 25.0348 6.50068ZM21.5097 19.4259C20.8383 20.4331 19.999 21.1045 18.8239 21.2724C18.1525 21.2724 17.3132 21.6081 13.956 20.2652C11.1023 18.9224 8.75229 16.7402 7.07369 14.2223C6.06652 13.0472 5.56294 11.5365 5.39508 10.0257C5.39508 8.68286 5.89866 7.50784 6.73797 6.66854C7.07369 6.33282 7.40941 6.16495 7.74513 6.16495H8.58443C8.92015 6.16495 9.25588 6.16495 9.42374 6.8364C9.75946 7.6757 10.5988 9.69003 10.5988 9.85789C10.7666 10.0257 10.7666 10.3615 10.5988 10.5293C10.7666 10.8651 10.5988 11.2008 10.4309 11.3686C10.263 11.5365 10.0952 11.8722 9.92732 12.0401C9.5916 12.2079 9.42374 12.5437 9.5916 12.8794C10.263 13.8865 11.1023 14.8937 11.9416 15.733C12.9488 16.5723 13.956 17.2438 15.131 17.7473C15.4667 17.9152 15.8024 17.9152 15.9703 17.5795C16.1382 17.2438 16.9775 16.4044 17.3132 16.0687C17.6489 15.733 17.8168 15.733 18.1525 15.9009L20.8383 17.2438C21.174 17.4116 21.5097 17.5795 21.6776 17.7473C21.8454 18.2509 21.8454 18.9224 21.5097 19.4259Z" fill="#4FCE5D"/>
</svg>
